<?xml version="1.0" standalone="no"?>
<!DOCTYPE svg PUBLIC "-//W3C//DTD SVG 20010904//EN"
 "http://www.w3.org/TR/2001/REC-SVG-20010904/DTD/svg10.dtd">
<svg version="1.0" xmlns="http://www.w3.org/2000/svg"
 width="720.000000pt" height="720.000000pt" viewBox="0 0 720.000000 720.000000"
 preserveAspectRatio="xMidYMid meet">
<metadata>
Created by potrace 1.14, written by Peter Selinger 2001-2017
</metadata>
<g transform="translate(0.000000,720.000000) scale(0.100000,-0.100000)"
fill="#000000" stroke="none">
<path d="M3467 6094 c-1 -1 -33 -5 -72 -8 -161 -12 -341 -45 -500 -91 -100
-29 -315 -111 -330 -126 -5 -5 -14 -9 -20 -9 -19 0 -234 -120 -327 -182 -318
-212 -615 -532 -790 -848 -14 -25 -34 -61 -45 -80 -58 -105 -177 -413 -197
-512 -3 -13 -7 -32 -10 -43 -14 -57 -36 -166 -42 -210 -3 -27 -8 -59 -10 -70
-24 -125 -23 -485 2 -645 5 -34 22 -131 30 -178 36 -190 120 -427 224 -632
354 -692 1047 -1201 1800 -1320 41 -6 86 -13 100 -16 226 -37 640 -16 875 43
33 8 68 17 78 18 79 16 380 125 401 146 6 5 15 9 22 9 6 0 58 25 115 56 251
137 423 266 620 469 306 313 524 704 628 1125 28 112 35 143 46 225 4 22 8 51
11 65 23 126 22 502 -2 650 -9 59 -33 194 -38 215 -131 563 -429 1041 -870
1397 -86 70 -269 198 -282 198 -2 0 -23 12 -46 26 -131 83 -464 220 -600 248
-13 3 -64 14 -113 25 -50 11 -108 23 -130 25 -22 3 -56 8 -75 11 -89 13 -443
28 -453 19z"/>
</g>
</svg>
